<svg id="Слой_1" data-name="Слой 1" xmlns="http://www.w3.org/2000/svg" viewBox="0 0 1200 630"><defs><style>.cls-1{fill:#2094f3;}.cls-2{fill:#7e56c2;}.cls-3,.cls-4,.cls-5,.cls-6{fill:#fff;}.cls-4{font-size:99.59px;}.cls-4,.cls-6{font-family:Roboto-Bold, Roboto;font-weight:700;}.cls-5{font-size:30px;font-family:Roboto-Regular, Roboto;}.cls-6{font-size:36px;}</style></defs><rect class="cls-1" width="1200" height="630"/><rect class="cls-2" width="1200" height="630"/><polyline class="cls-3" points="940.62 114.88 991.72 69.36 1005.85 69.36 1005.85 114.88 992.6 114.88 992.6 84.93 959.27 114.88 940.62 114.88"/><path class="cls-3" d="M1150.81,71.36v41.52h-34.27l8.35-7.62h14.67a2,2,0,0,0,2-2V84.93a2,2,0,0,0-1.19-1.83,1.9,1.9,0,0,0-.81-.17,2,2,0,0,0-1.34.51l-32.76,29.44h-12.63l46.61-41.52h11.37m2-2h-14.13l-51.1,45.52h18.65l33.33-29.95v18.33h-15.45l-12.73,11.62h41.43V69.36Z"/><path class="cls-3" d="M960.1,81l14.34-11.6H922v45.52h13.54l22.79-20.39c-11-5.73-22.79-1.19-22.79-1.19V81Z"/><polygon class="cls-3" points="1025.8 81.03 1048.14 81.03 1061.38 69.36 1012.25 69.36 1012.25 112.68 1025.8 100.74 1025.8 81.03"/><polygon class="cls-3" points="1063.99 71.66 1050.45 83.6 1050.45 103.21 1028.21 103.21 1014.97 114.88 1063.99 114.88 1063.99 71.66"/><polygon class="cls-3" points="1120.88 69.36 1103.73 69.36 1084.09 86.69 1084.09 69.36 1070.55 69.36 1070.55 114.88 1084.09 114.88 1084.09 102.32 1120.88 69.36"/><text class="cls-4" transform="translate(56.19 252.51)">Идентификация <tspan x="0" y="98">стюарда</tspan></text><text class="cls-5" transform="translate(67.22 538.71)">Описание принятых стандартов и норм внешнего вида <tspan x="0" y="36">при работе на мероприятиях на Газпром Арене</tspan></text><text class="cls-6" transform="translate(61.22 97.6)">Портал блока А</text></svg>