<svg xmlns="http://www.w3.org/2000/svg" viewBox="0 0 231.77 47.52"><defs><style>.cls-1{fill:#fff;}.cls-2{fill:none;stroke:#fff;stroke-miterlimit:10;stroke-width:2px;}</style></defs><g id="Слой_2" data-name="Слой 2"><g id="Layer_1" data-name="Layer 1"><polyline class="cls-1" points="18.58 46.52 69.68 1 83.82 1 83.82 46.52 70.56 46.52 70.56 16.57 37.23 46.52 18.58 46.52"/><polygon class="cls-2" points="230.78 1 216.64 1 165.54 46.52 184.19 46.52 217.52 16.57 217.52 34.9 202.08 34.9 189.35 46.52 220.26 46.52 220.26 46.52 230.78 46.52 230.78 1"/><path class="cls-1" d="M38.06,12.6,52.41,1H0V46.52H13.55L36.33,26.13c-11-5.73-22.78-1.2-22.78-1.2V12.6Z"/><polygon class="cls-1" points="103.76 12.67 126.11 12.67 139.35 1 90.21 1 90.21 44.32 103.76 32.37 103.76 12.67"/><polygon class="cls-1" points="141.96 3.3 128.41 15.24 128.41 34.85 106.17 34.85 92.93 46.52 141.96 46.52 141.96 3.3"/><polygon class="cls-1" points="198.84 1 181.7 1 162.05 18.33 162.05 1 148.51 1 148.51 46.52 162.05 46.52 162.05 33.96 198.84 1"/></g></g></svg>